<svg width="48" height="48" viewBox="0 0 48 48" fill="none" xmlns="http://www.w3.org/2000/svg">
<path fill-rule="evenodd" clip-rule="evenodd" d="M42 2H6C3.79086 2 2 3.79086 2 6V42C2 44.2091 3.79086 46 6 46H42C44.2091 46 46 44.2091 46 42V6C46 3.79086 44.2091 2 42 2ZM6 0C2.68629 0 0 2.68629 0 6V42C0 45.3137 2.68629 48 6 48H42C45.3137 48 48 45.3137 48 42V6C48 2.68629 45.3137 0 42 0H6Z" fill="#582E2B"/>
<path d="M24.7857 16.4545V28.1307L29.2743 23.6278L30.3823 24.7216L24.0044 31.0852L17.6408 24.7216L18.7203 23.6278L23.2232 28.1307V16.4545H24.7857Z" fill="#582E2B"/>
</svg>
