<svg width="48" height="48" viewBox="0 0 48 48" fill="none" xmlns="http://www.w3.org/2000/svg">
<path fill-rule="evenodd" clip-rule="evenodd" d="M42 2H6C3.79086 2 2 3.79086 2 6V42C2 44.2091 3.79086 46 6 46H42C44.2091 46 46 44.2091 46 42V6C46 3.79086 44.2091 2 42 2ZM6 0C2.68629 0 0 2.68629 0 6V42C0 45.3137 2.68629 48 6 48H42C45.3137 48 48 45.3137 48 42V6C48 2.68629 45.3137 0 42 0H6Z" fill="#582E2B"/>
<path d="M16.0087 29.1651C15.2026 29.1651 14.5084 28.9929 13.926 28.6484C13.3471 28.3004 12.8997 27.8121 12.5837 27.1836C12.2712 26.5515 12.1149 25.8111 12.1149 24.9624C12.1149 24.1243 12.2712 23.3857 12.5837 22.7464C12.8997 22.1072 13.34 21.6083 13.9047 21.2496C14.4729 20.891 15.1369 20.7116 15.8969 20.7116C16.3585 20.7116 16.806 20.788 17.2392 20.9407C17.6724 21.0934 18.0613 21.3331 18.4057 21.6598C18.7502 21.9865 19.0219 22.4109 19.2207 22.9329C19.4196 23.4513 19.519 24.0817 19.519 24.8239V25.3885H13.0151V24.1953H17.9583C17.9583 23.7763 17.8731 23.4052 17.7026 23.082C17.5322 22.7553 17.2925 22.4979 16.9835 22.3097C16.6781 22.1214 16.3194 22.0273 15.9075 22.0273C15.4601 22.0273 15.0694 22.1374 14.7356 22.3576C14.4054 22.5742 14.1497 22.8583 13.9686 23.2099C13.791 23.5579 13.7023 23.9361 13.7023 24.3445V25.2766C13.7023 25.8235 13.7981 26.2887 13.9899 26.6722C14.1852 27.0558 14.4569 27.3487 14.8049 27.5511C15.1529 27.75 15.5595 27.8494 16.0247 27.8494C16.3266 27.8494 16.6018 27.8068 16.8503 27.7216C17.0989 27.6328 17.3138 27.5014 17.4949 27.3274C17.676 27.1534 17.8145 26.9386 17.9104 26.6829L19.4178 26.9545C19.2971 27.3984 19.0805 27.7873 18.768 28.1211C18.459 28.4513 18.0702 28.7088 17.6014 28.8935C17.1362 29.0746 16.6053 29.1651 16.0087 29.1651ZM27.3272 22.8157L25.8837 23.0714C25.8233 22.8867 25.7274 22.7109 25.596 22.544C25.4682 22.3771 25.2942 22.2404 25.074 22.1339C24.8538 22.0273 24.5786 21.9741 24.2484 21.9741C23.7974 21.9741 23.4209 22.0753 23.1191 22.2777C22.8172 22.4766 22.6663 22.734 22.6663 23.0501C22.6663 23.3235 22.7675 23.5437 22.9699 23.7106C23.1724 23.8775 23.4991 24.0142 23.9501 24.1207L25.2498 24.419C26.0026 24.593 26.5637 24.8612 26.933 25.2234C27.3023 25.5856 27.487 26.0561 27.487 26.6349C27.487 27.125 27.3449 27.5618 27.0609 27.9453C26.7803 28.3253 26.3879 28.6236 25.8837 28.8402C25.3829 29.0568 24.8023 29.1651 24.1418 29.1651C23.2256 29.1651 22.4781 28.9698 21.8993 28.5792C21.3204 28.185 20.9653 27.6257 20.8339 26.9013L22.3734 26.6669C22.4692 27.0682 22.6663 27.3718 22.9646 27.5778C23.2629 27.7802 23.6518 27.8814 24.1312 27.8814C24.6532 27.8814 25.0704 27.7731 25.3829 27.5565C25.6954 27.3363 25.8517 27.0682 25.8517 26.7521C25.8517 26.4964 25.7558 26.2816 25.5641 26.1076C25.3758 25.9336 25.0864 25.8022 24.6958 25.7134L23.3109 25.4098C22.5474 25.2358 21.9827 24.9588 21.617 24.5788C21.2547 24.1989 21.0736 23.7177 21.0736 23.1353C21.0736 22.6523 21.2086 22.2298 21.4785 21.8675C21.7484 21.5053 22.1212 21.223 22.5971 21.0206C23.0729 20.8146 23.618 20.7116 24.2324 20.7116C25.1166 20.7116 25.8126 20.9034 26.3204 21.2869C26.8283 21.6669 27.1638 22.1765 27.3272 22.8157ZM32.5945 29.1651C31.8026 29.1651 31.1208 28.9858 30.5491 28.6271C29.9809 28.2649 29.5441 27.766 29.2387 27.1303C28.9333 26.4947 28.7806 25.7667 28.7806 24.9464C28.7806 24.1154 28.9369 23.3821 29.2494 22.7464C29.5619 22.1072 30.0022 21.6083 30.5704 21.2496C31.1386 20.891 31.8079 20.7116 32.5785 20.7116C33.2 20.7116 33.754 20.8271 34.2405 21.0579C34.727 21.2852 35.1194 21.6048 35.4177 22.0167C35.7195 22.4286 35.8989 22.9098 35.9557 23.4602H34.4056C34.3204 23.0767 34.1251 22.7464 33.8197 22.4695C33.5178 22.1925 33.113 22.054 32.6052 22.054C32.1613 22.054 31.7724 22.1712 31.4386 22.4055C31.1084 22.6364 30.8509 22.9666 30.6663 23.3963C30.4816 23.8224 30.3893 24.3267 30.3893 24.9091C30.3893 25.5057 30.4798 26.0206 30.6609 26.4538C30.842 26.8871 31.0977 27.2227 31.428 27.4606C31.7618 27.6985 32.1542 27.8175 32.6052 27.8175C32.907 27.8175 33.1805 27.7624 33.4255 27.6523C33.6741 27.5387 33.8818 27.3771 34.0487 27.1676C34.2192 26.9581 34.3381 26.706 34.4056 26.4112H35.9557C35.8989 26.9403 35.7266 27.4126 35.439 27.8281C35.1513 28.2436 34.766 28.5703 34.2831 28.8082C33.8037 29.0462 33.2408 29.1651 32.5945 29.1651Z" fill="#582E2B"/>
</svg>
