<svg width="176" height="48" viewBox="0 0 176 48" fill="none" xmlns="http://www.w3.org/2000/svg">
<path fill-rule="evenodd" clip-rule="evenodd" d="M170 2H6C3.79086 2 2 3.79086 2 6V42C2 44.2091 3.79086 46 6 46H170C172.209 46 174 44.2091 174 42V6C174 3.79086 172.209 2 170 2ZM6 0C2.68629 0 0 2.68629 0 6V42C0 45.3137 2.6863 48 6 48H170C173.314 48 176 45.3137 176 42V6C176 2.68629 173.314 0 170 0H6Z" fill="#582E2B"/>
<path d="M73.8046 22.8157L72.361 23.0714C72.3007 22.8867 72.2048 22.7109 72.0734 22.544C71.9455 22.3771 71.7715 22.2404 71.5514 22.1339C71.3312 22.0273 71.056 21.9741 70.7257 21.9741C70.2747 21.9741 69.8983 22.0753 69.5965 22.2777C69.2946 22.4766 69.1437 22.734 69.1437 23.0501C69.1437 23.3235 69.2449 23.5437 69.4473 23.7106C69.6497 23.8775 69.9764 24.0142 70.4274 24.1207L71.7271 24.419C72.48 24.593 73.0411 24.8612 73.4104 25.2234C73.7797 25.5856 73.9644 26.0561 73.9644 26.6349C73.9644 27.125 73.8223 27.5618 73.5382 27.9453C73.2577 28.3253 72.8653 28.6236 72.361 28.8402C71.8603 29.0568 71.2797 29.1651 70.6192 29.1651C69.703 29.1651 68.9555 28.9698 68.3766 28.5792C67.7978 28.185 67.4427 27.6257 67.3113 26.9013L68.8507 26.6669C68.9466 27.0682 69.1437 27.3718 69.442 27.5778C69.7403 27.7802 70.1291 27.8814 70.6085 27.8814C71.1306 27.8814 71.5478 27.7731 71.8603 27.5565C72.1728 27.3363 72.3291 27.0682 72.3291 26.7521C72.3291 26.4964 72.2332 26.2816 72.0414 26.1076C71.8532 25.9336 71.5638 25.8022 71.1732 25.7134L69.7882 25.4098C69.0247 25.2358 68.4601 24.9588 68.0943 24.5788C67.7321 24.1989 67.551 23.7177 67.551 23.1353C67.551 22.6523 67.6859 22.2298 67.9558 21.8675C68.2257 21.5053 68.5986 21.223 69.0744 21.0206C69.5503 20.8146 70.0954 20.7116 70.7097 20.7116C71.594 20.7116 72.29 20.9034 72.7978 21.2869C73.3056 21.6669 73.6412 22.1765 73.8046 22.8157ZM75.6255 32.0682V20.8182H77.1809V22.1445H77.3141C77.4064 21.9741 77.5396 21.777 77.7136 21.5533C77.8876 21.3295 78.1291 21.1342 78.438 20.9673C78.747 20.7969 79.1553 20.7116 79.6632 20.7116C80.3237 20.7116 80.9131 20.8786 81.4316 21.2124C81.9501 21.5462 82.3567 22.0273 82.6514 22.6559C82.9497 23.2844 83.0989 24.0408 83.0989 24.9251C83.0989 25.8093 82.9515 26.5675 82.6568 27.1996C82.362 27.8281 81.9572 28.3129 81.4423 28.6538C80.9274 28.9911 80.3396 29.1598 79.6791 29.1598C79.182 29.1598 78.7754 29.0763 78.4593 28.9094C78.1468 28.7425 77.9018 28.5472 77.7242 28.3235C77.5467 28.0998 77.41 27.9009 77.3141 27.7269H77.2182V32.0682H75.6255ZM77.1862 24.9091C77.1862 25.4844 77.2697 25.9886 77.4366 26.4219C77.6035 26.8551 77.845 27.1942 78.161 27.4393C78.4771 27.6808 78.8641 27.8015 79.3222 27.8015C79.7981 27.8015 80.1958 27.6754 80.5154 27.4233C80.835 27.1676 81.0765 26.8214 81.2399 26.3846C81.4068 25.9478 81.4902 25.456 81.4902 24.9091C81.4902 24.3693 81.4085 23.8846 81.2452 23.4549C81.0854 23.0252 80.8439 22.6861 80.5207 22.4375C80.2011 22.1889 79.8016 22.0646 79.3222 22.0646C78.8606 22.0646 78.47 22.1836 78.1504 22.4215C77.8343 22.6594 77.5946 22.9915 77.4313 23.4176C77.2679 23.8437 77.1862 24.3409 77.1862 24.9091ZM87.1744 29.1811C86.6559 29.1811 86.1871 29.0852 85.7681 28.8935C85.3491 28.6982 85.017 28.4158 84.772 28.0465C84.5305 27.6772 84.4098 27.2244 84.4098 26.6882C84.4098 26.2266 84.4986 25.8466 84.6761 25.5483C84.8537 25.25 85.0934 25.0138 85.3952 24.8398C85.6971 24.6658 86.0344 24.5344 86.4073 24.4457C86.7802 24.3569 87.1602 24.2894 87.5472 24.2433C88.0373 24.1864 88.435 24.1403 88.7404 24.1048C89.0458 24.0657 89.2678 24.0036 89.4062 23.9183C89.5447 23.8331 89.614 23.6946 89.614 23.5028V23.4656C89.614 23.0004 89.4826 22.6399 89.2198 22.3842C88.9606 22.1286 88.5735 22.0007 88.0586 22.0007C87.5224 22.0007 87.0998 22.1197 86.7908 22.3576C86.4854 22.592 86.2741 22.853 86.157 23.1406L84.6602 22.7997C84.8377 22.3026 85.0969 21.9013 85.4379 21.5959C85.7823 21.2869 86.1783 21.0632 86.6257 20.9247C87.0732 20.7827 87.5437 20.7116 88.0373 20.7116C88.364 20.7116 88.7102 20.7507 89.076 20.8288C89.4453 20.9034 89.7898 21.0419 90.1094 21.2443C90.4325 21.4467 90.6971 21.7362 90.9031 22.1126C91.109 22.4854 91.212 22.9702 91.212 23.5668V29H89.6566V27.8814H89.5927C89.4897 28.0874 89.3352 28.2898 89.1293 28.4886C88.9233 28.6875 88.6587 28.8526 88.3356 28.984C88.0124 29.1154 87.6254 29.1811 87.1744 29.1811ZM87.5206 27.9027C87.9609 27.9027 88.3374 27.8157 88.6499 27.6417C88.9659 27.4677 89.2056 27.2404 89.369 26.9599C89.5359 26.6758 89.6193 26.3722 89.6193 26.049V24.9943C89.5625 25.0511 89.4524 25.1044 89.2891 25.1541C89.1293 25.2003 88.9464 25.2411 88.7404 25.2766C88.5344 25.3086 88.3338 25.3388 88.1385 25.3672C87.9432 25.392 87.7798 25.4134 87.6484 25.4311C87.3395 25.4702 87.0572 25.5359 86.8015 25.6282C86.5494 25.7205 86.3469 25.8537 86.1942 26.0277C86.0451 26.1982 85.9705 26.4254 85.9705 26.7095C85.9705 27.1037 86.1161 27.402 86.4073 27.6044C86.6985 27.8033 87.0696 27.9027 87.5206 27.9027ZM96.6897 29.1651C95.8978 29.1651 95.216 28.9858 94.6443 28.6271C94.0761 28.2649 93.6393 27.766 93.3339 27.1303C93.0285 26.4947 92.8758 25.7667 92.8758 24.9464C92.8758 24.1154 93.0321 23.3821 93.3446 22.7464C93.6571 22.1072 94.0974 21.6083 94.6656 21.2496C95.2338 20.891 95.9032 20.7116 96.6738 20.7116C97.2952 20.7116 97.8492 20.8271 98.3357 21.0579C98.8222 21.2852 99.2146 21.6048 99.5129 22.0167C99.8147 22.4286 99.9941 22.9098 100.051 23.4602H98.5008C98.4156 23.0767 98.2203 22.7464 97.9149 22.4695C97.613 22.1925 97.2082 22.054 96.7004 22.054C96.2565 22.054 95.8677 22.1712 95.5338 22.4055C95.2036 22.6364 94.9461 22.9666 94.7615 23.3963C94.5768 23.8224 94.4845 24.3267 94.4845 24.9091C94.4845 25.5057 94.575 26.0206 94.7562 26.4538C94.9373 26.8871 95.1929 27.2227 95.5232 27.4606C95.857 27.6985 96.2494 27.8175 96.7004 27.8175C97.0022 27.8175 97.2757 27.7624 97.5207 27.6523C97.7693 27.5387 97.977 27.3771 98.1439 27.1676C98.3144 26.9581 98.4334 26.706 98.5008 26.4112H100.051C99.9941 26.9403 99.8218 27.4126 99.5342 27.8281C99.2466 28.2436 98.8613 28.5703 98.3783 28.8082C97.8989 29.0462 97.3361 29.1651 96.6897 29.1651ZM105.19 29.1651C104.384 29.1651 103.69 28.9929 103.108 28.6484C102.529 28.3004 102.081 27.8121 101.765 27.1836C101.453 26.5515 101.297 25.8111 101.297 24.9624C101.297 24.1243 101.453 23.3857 101.765 22.7464C102.081 22.1072 102.522 21.6083 103.086 21.2496C103.655 20.891 104.319 20.7116 105.079 20.7116C105.54 20.7116 105.988 20.788 106.421 20.9407C106.854 21.0934 107.243 21.3331 107.587 21.6598C107.932 21.9865 108.204 22.4109 108.402 22.9329C108.601 23.4513 108.701 24.0817 108.701 24.8239V25.3885H102.197V24.1953H107.14C107.14 23.7763 107.055 23.4052 106.884 23.082C106.714 22.7553 106.474 22.4979 106.165 22.3097C105.86 22.1214 105.501 22.0273 105.089 22.0273C104.642 22.0273 104.251 22.1374 103.917 22.3576C103.587 22.5742 103.331 22.8583 103.15 23.2099C102.973 23.5579 102.884 23.9361 102.884 24.3445V25.2766C102.884 25.8235 102.98 26.2887 103.172 26.6722C103.367 27.0558 103.639 27.3487 103.987 27.5511C104.335 27.75 104.741 27.8494 105.206 27.8494C105.508 27.8494 105.783 27.8068 106.032 27.7216C106.281 27.6328 106.495 27.5014 106.677 27.3274C106.858 27.1534 106.996 26.9386 107.092 26.6829L108.599 26.9545C108.479 27.3984 108.262 27.7873 107.95 28.1211C107.641 28.4513 107.252 28.7088 106.783 28.8935C106.318 29.0746 105.787 29.1651 105.19 29.1651Z" fill="#582E2B"/>
</svg>
