<svg width="48" height="48" viewBox="0 0 48 48" fill="none" xmlns="http://www.w3.org/2000/svg">
<path fill-rule="evenodd" clip-rule="evenodd" d="M42 2H6C3.79086 2 2 3.79086 2 6V42C2 44.2091 3.79086 46 6 46H42C44.2091 46 46 44.2091 46 42V6C46 3.79086 44.2091 2 42 2ZM6 0C2.68629 0 0 2.68629 0 6V42C0 45.3137 2.68629 48 6 48H42C45.3137 48 48 45.3137 48 42V6C48 2.68629 45.3137 0 42 0H6Z" fill="#582E2B"/>
<path d="M23.2232 31H24.7857V19.3239L29.2885 23.8267L30.3681 22.733L24.0044 16.3693L17.6266 22.733L18.7346 23.8267L23.2232 19.3239V31Z" fill="#582E2B"/>
</svg>
